# xmcd
#
# Track frame offsets: 
#        150
#        13486
#        29894
#        44495
#        56977
#        72072
#        84868
#        94672
#        111125
#        126018
#        140187
#        152348
#        164164
#        175735
#        189453
#        207212
#
# Disc length: 2983 seconds
#
# Revision: 1
# Processed by: cddbd v1.5.2PL0 Copyright (c) Steve Scherf et al.
# Submitted via: ExactAudioCopy v0.95b4
#
DISCID=e70ba510
DTITLE=Slapbacks - Net.Wt. 2.5 OZ.
DYEAR=2003
DGENRE=Rockabilly
TTITLE0=Sick 'n Tired Of Singing The Blues
TTITLE1=Sittin' On The Rooftop
TTITLE2=Long Way To Memphis
TTITLE3=706
TTITLE4=Crazy Love
TTITLE5=Make Hay While The Sun Shines
TTITLE6=I'm Loaded
TTITLE7=Long Lonely Highway
TTITLE8=I Wanna Make Love To You
TTITLE9=Poor Little Fool
TTITLE10=Even Lonesome Cowboys Cry For Love
TTITLE11=Tell Me What's Wrong With Me
TTITLE12=Heartbreaking For Beginners
TTITLE13=What's The Matter
TTITLE14=The Girl From Mexico
TTITLE15=Long Lonely Highway (Acoustic Version)
EXTD=
EXTT0=
EXTT1=
EXTT2=
EXTT3=
EXTT4=
EXTT5=
EXTT6=
EXTT7=
EXTT8=
EXTT9=
EXTT10=
EXTT11=
EXTT12=
EXTT13=
EXTT14=
EXTT15=
PLAYORDER=
